<svg width="583" height="161" viewBox="0 0 583 161" fill="none" xmlns="http://www.w3.org/2000/svg">
<path d="M224.318 63.0989C220.471 70.3157 214.996 74.5399 205.931 74.5399C193.018 74.5399 182.756 63.8068 182.756 50.5185C182.756 37.2302 191.648 26.4051 205.931 26.4051C214.565 26.4051 220.213 30.4509 224.318 37.495L216.025 42.3349C214.655 39.1697 211.238 35.0318 205.936 35.0318C195.932 35.0318 192.683 42.686 192.683 50.5185C192.683 58.3511 195.932 65.9189 205.936 65.9189C211.663 65.9189 214.828 61.2573 216.025 58.7021L224.318 63.1047V63.0989Z" fill="#EAE8E1"/>
<path d="M245.647 74.5341C233.076 74.5341 223.071 63.709 223.071 50.5128C223.071 38.2834 232.136 26.3994 245.647 26.3994C259.158 26.3994 268.05 38.2777 268.05 50.5128C268.05 63.6226 258.985 74.5341 245.647 74.5341ZM258.817 50.5128C258.817 42.5939 254.287 34.675 245.647 34.675C237.007 34.675 232.309 42.1565 232.309 50.5128C232.309 58.869 236.929 66.2642 245.647 66.2642C253.773 66.2642 258.817 58.6964 258.817 50.5128Z" fill="#EAE8E1"/>
<path d="M334.625 73.7457H325.303V45.8512C325.303 39.7797 324.106 34.9398 317.692 34.9398C312.133 34.9398 307.945 38.1971 307.945 54.5643V73.7457H298.622V46.9044C298.622 42.2429 297.767 34.934 291.011 34.934C281.946 34.934 280.151 44.5276 280.151 52.4465V73.7399H270.829V27.1935H280.062L281.6 31.2393C284.849 27.6309 288.355 26.3994 291.52 26.3994C295.368 26.3994 301.698 27.3662 304.947 33.4377C309.393 27.6309 315.209 26.3994 317.686 26.3994C334.362 26.3994 334.62 38.9855 334.62 46.9044V73.7457H334.625Z" fill="#EAE8E1"/>
<path d="M403.539 73.7457H394.216V45.8512C394.216 39.7797 393.02 34.9398 386.605 34.9398C381.047 34.9398 376.858 38.1971 376.858 54.5643V73.7457H367.536V46.9044C367.536 42.2429 366.68 34.934 359.925 34.934C350.86 34.934 349.064 44.5276 349.064 52.4465V73.7399H339.742V27.1935H348.975L350.513 31.2393C353.762 27.6309 357.268 26.3994 360.434 26.3994C364.281 26.3994 370.611 27.3662 373.861 33.4377C378.306 27.6309 384.122 26.3994 386.6 26.3994C403.276 26.3994 403.533 38.9855 403.533 46.9044V73.7457H403.539Z" fill="#EAE8E1"/>
<path d="M408.169 27.1935H417.491V55.6175C417.491 64.4168 422.021 66.2642 425.36 66.2642C431.69 66.2642 439.469 63.0989 439.469 46.3749V27.1935H448.791V73.7457H439.469L437.59 69.0841C433.312 73.222 428.525 74.5399 424.851 74.5399C412.967 74.5399 408.175 67.7662 408.175 56.239V27.1993L408.169 27.1935Z" fill="#EAE8E1"/>
<path d="M494.659 73.7457H485.336V45.3218C485.336 36.5224 480.807 34.675 477.468 34.675C471.138 34.675 463.359 37.8403 463.359 54.5643V73.7457H454.036V27.1935H463.359L465.238 31.8551C469.516 27.7172 474.303 26.3994 477.977 26.3994C489.86 26.3994 494.653 33.173 494.653 44.7002V73.7399L494.659 73.7457Z" fill="#EAE8E1"/>
<path d="M509.383 21.6514H499.379V11.2693H509.383V21.6514ZM499.72 27.1934H509.042V73.7456H499.72V27.1934Z" fill="#EAE8E1"/>
<path d="M533.223 65.8268C536.299 65.8268 538.183 65.2973 538.183 65.2973V73.4809C534.593 74.0967 531.428 74.5341 528.693 74.5341C521.513 74.5341 517.408 71.4552 517.408 59.7495V35.5498H508.857V27.1878H517.408V11.2579H526.641V27.1878H538.183V35.5498H526.641V58.9553C526.641 64.2326 529.118 65.821 533.223 65.821V65.8268Z" fill="#EAE8E1"/>
<path d="M572.894 27.1935H582.899L563.661 75.3283C558.276 88.8813 553.741 90.3776 543.652 90.3776V80.8761C551.347 80.8761 552.544 78.8504 554.171 75.5988L554.943 73.7514L536.388 27.1993H546.309L559.646 61.43L572.9 27.1993L572.894 27.1935Z" fill="#EAE8E1"/>
<path d="M230.475 123.388C228.937 126.294 227.053 129.022 224.659 131.836L236.543 144.86H223.888L219.011 138.967C215.505 142.575 208.151 145.654 201.826 145.654C193.192 145.654 181.045 140.901 181.045 126.91C181.045 119.78 185.491 113.536 193.102 109.749C190.278 106.405 186.772 102.267 186.772 96.9036C186.772 87.9258 192.672 81.5896 203.358 81.5896C211.993 81.5896 218.491 87.5748 218.491 96.9036C218.491 104.12 213.447 109.49 207.631 112.92L218.491 124.89C221.226 121.725 222.512 119.434 224.134 116.442L230.464 123.394L230.475 123.388ZM201.916 136.855C206.02 136.855 210.293 135.18 212.86 132.101L199.349 116.701C194.472 118.462 190.368 122.335 190.368 126.996C190.368 128.579 190.793 130.162 191.822 131.836C193.874 135.266 197.895 136.855 201.91 136.855H201.916ZM196.189 96.9036C196.189 100.161 199.438 104.207 201.748 106.497C204.913 104.65 208.928 101.657 208.928 96.9036C208.928 93.7384 207.905 90.7458 202.257 90.7458C198.325 90.7458 196.184 93.6521 196.184 96.9036H196.189Z" fill="#FC002D"/>
<path d="M258.263 92.7658H248.259V82.3838H258.263V92.7658ZM248.605 98.3136H257.928V144.866H248.605V98.3136Z" fill="#EAE8E1"/>
<path d="M327.048 144.86H317.725V116.966C317.725 110.894 316.529 106.054 310.114 106.054C304.556 106.054 300.367 109.311 300.367 125.679V144.86H291.045V118.019C291.045 113.357 290.189 106.048 283.434 106.048C274.369 106.048 272.574 115.642 272.574 123.561V144.854H263.251V98.3022H272.484L274.022 102.348C277.271 98.7395 280.777 97.508 283.943 97.508C287.79 97.508 294.121 98.4748 297.37 104.546C301.815 98.7395 307.631 97.508 310.109 97.508C326.785 97.508 327.042 110.094 327.042 118.013V144.854L327.048 144.86Z" fill="#EAE8E1"/>
<path d="M354.5 145.654C348.941 145.654 344.753 142.84 341.761 139.053V160.704H332.439V98.3137H341.761L343.299 102.273C346.123 99.4589 349.881 97.5195 354.5 97.5195C362.279 97.5195 367.071 100.426 370.578 104.293C374.599 108.782 377.076 114.854 377.076 121.541C377.076 128.228 374.599 134.3 370.494 138.789C366.473 143.277 360.747 145.654 354.506 145.654H354.5ZM345.004 110.457C342.527 113.185 341.157 117.23 341.157 121.547C341.157 125.863 342.527 129.909 344.921 132.636C347.487 135.543 350.904 137.125 354.5 137.125C362.877 137.125 367.754 129.028 367.754 121.552C367.754 113.541 362.536 106.066 354.5 106.066C350.82 106.066 347.404 107.827 345.01 110.468L345.004 110.457Z" fill="#EAE8E1"/>
<path d="M416.837 144.86H409.998C407.006 144.86 406.922 140.987 406.922 140.457C404.098 143.364 401.279 145.648 394.524 145.648C385.8 145.648 377.848 141.511 377.848 131.307C377.848 117.932 388.534 116.522 399.909 116.085C404.528 115.907 406.665 114.238 406.665 111.596C406.665 108.517 403.242 105.525 397.941 105.525C393.579 105.525 389.306 107.286 386.655 111.067L380.582 105.611C384.514 100.242 391.101 97.5137 397.941 97.5137C408.376 97.5137 415.383 103.407 415.383 114.761V141.424C415.383 142.04 415.724 143.272 416.837 143.272V144.854V144.86ZM407 124.004V121.362C405.121 124.09 399.216 123.653 396.397 123.826C387.931 124.263 387.164 128.844 387.164 131.307C387.164 133.505 388.618 137.994 394.518 137.994C405.552 137.994 407.006 131.658 407.006 124.004H407Z" fill="#EAE8E1"/>
<path d="M459.506 134.213C455.658 141.43 450.183 145.654 441.118 145.654C428.206 145.654 417.944 134.921 417.944 121.633C417.944 108.345 426.836 97.5195 441.118 97.5195C449.753 97.5195 455.401 101.565 459.506 108.609L451.212 113.449C449.842 110.284 446.425 106.146 441.124 106.146C431.119 106.146 427.87 113.8 427.87 121.633C427.87 129.465 431.119 137.033 441.124 137.033C446.856 137.033 450.016 132.372 451.212 129.816L459.506 134.219V134.213Z" fill="#EAE8E1"/>
<path d="M483.703 136.941C486.779 136.941 488.664 136.412 488.664 136.412V144.595C485.073 145.211 481.908 145.648 479.174 145.648C471.993 145.648 467.888 142.57 467.888 130.864V106.664H459.338V98.3021H467.888V82.3723H477.121V98.3021H488.664V106.664H477.121V130.07C477.121 135.347 479.599 136.935 483.703 136.935V136.941Z" fill="#EAE8E1"/>
<path d="M147.357 1.02673H135.988L112.915 59.1176L104.258 37.6458L96.9208 19.3909L89.5838 1.04975H78.0973L73.836 11.5814L66.8401 28.8406L60.5544 44.7417C59.0389 48.3155 58.4126 49.3974 58.4126 49.3974C54.347 56.5797 50.4157 58.8299 50.4157 58.8299C45.4777 62.5073 40.098 62.9274 40.098 62.9274C31.9333 64.1993 25.5693 60.5219 25.5693 60.5219C20.4524 58.0299 17.125 53.4259 17.125 53.4259C13.3558 48.6493 12.2709 42.6353 12.2709 42.6353C11.0351 35.8962 12.7631 30.6304 12.7631 30.6304C14.3457 25.3646 16.879 22.1476 16.879 22.1476C20.0889 17.9637 23.7239 15.794 23.7239 15.794C30.3227 11.8461 36.463 12.036 36.463 12.036C43.9678 11.5296 51.5565 16.4041 51.5565 16.4041L56.1645 5.71705C49.2413 1.49864 42.676 0.537552 42.676 0.537552C35.6298 -0.883931 28.2424 0.963422 28.2424 0.963422C20.637 2.74171 14.7483 7.46656 14.7483 7.46656C9.69851 11.19 5.89578 17.1695 5.89578 17.1695C0.627884 26.1243 0.264388 33.3065 0.264388 33.3065C-0.72544 40.8916 1.38284 47.8378 1.38284 47.8378C3.22828 55.2733 8.36197 61.6211 8.36197 61.6211C13.7753 68.4119 21.0843 71.7844 21.0843 71.7844C29.1148 75.8129 36.9328 75.3582 36.9328 75.3582C45.2596 75.3237 51.2993 72.1757 51.2993 72.1757C58.0771 69.1601 61.2087 65.2812 61.2087 65.2812C64.7486 61.5232 67.8411 56.8617 67.8411 56.8617H99.4373L106.316 73.7641L119.402 73.7986L126.213 56.9307L157.3 56.8962L164.162 73.7986H176.672L147.357 1.02673ZM72.8071 45.2308L83.5554 17.2673L94.8964 45.2423H72.8126V45.2251L72.8071 45.2308ZM130.799 45.2136L141.53 17.2501L152.888 45.2251H130.804V45.2078L130.799 45.2136Z" fill="#FC002D"/>
</svg>
